<mxfile host="Electron" agent="Mozilla/5.0 (Windows NT 10.0; Win64; x64) AppleWebKit/537.36 (KHTML, like Gecko) draw.io/26.0.4 Chrome/128.0.6613.186 Electron/32.2.5 Safari/537.36" version="26.0.4">
  <diagram name="Page-1" id="ajkCKDZ3KHdWzNuvEcQ6">
    <mxGraphModel dx="2582" dy="1509" grid="1" gridSize="10" guides="1" tooltips="1" connect="1" arrows="1" fold="1" page="1" pageScale="1" pageWidth="1169" pageHeight="827" math="0" shadow="0">
      <root>
        <mxCell id="0" />
        <mxCell id="1" parent="0" />
        <mxCell id="r1ShE6sHiX4EfTQfoEpe-1" value="" style="rounded=0;whiteSpace=wrap;html=1;" vertex="1" parent="1">
          <mxGeometry x="529" y="40" width="50" height="750" as="geometry" />
        </mxCell>
        <mxCell id="r1ShE6sHiX4EfTQfoEpe-3" value="" style="rounded=0;whiteSpace=wrap;html=1;" vertex="1" parent="1">
          <mxGeometry x="489" y="115" width="40" height="600" as="geometry" />
        </mxCell>
        <mxCell id="r1ShE6sHiX4EfTQfoEpe-53" value="" style="triangle;whiteSpace=wrap;html=1;rotation=-90;" vertex="1" parent="1">
          <mxGeometry x="391.5" y="431" width="325" height="396" as="geometry" />
        </mxCell>
        <mxCell id="r1ShE6sHiX4EfTQfoEpe-54" value="&lt;br&gt;&lt;div&gt;&lt;b&gt;&lt;font style=&quot;font-size: 36px;&quot;&gt;Structure&lt;/font&gt;&lt;/b&gt;&lt;/div&gt;&lt;div&gt;&lt;b&gt;&lt;font style=&quot;font-size: 36px;&quot;&gt;Supports&lt;/font&gt;&lt;/b&gt;&lt;/div&gt;" style="text;html=1;strokeColor=none;fillColor=none;align=center;verticalAlign=middle;whiteSpace=wrap;rounded=0;fontSize=16;fontColor=#000000;" vertex="1" parent="1">
          <mxGeometry x="479" y="670" width="150" height="40" as="geometry" />
        </mxCell>
        <mxCell id="r1ShE6sHiX4EfTQfoEpe-61" value="&lt;span style=&quot;font-size: 36px;&quot;&gt;&lt;b&gt;Structure Side View&lt;/b&gt;&lt;/span&gt;&lt;br&gt;&lt;div&gt;&lt;br&gt;&lt;/div&gt;" style="text;html=1;strokeColor=none;fillColor=none;align=center;verticalAlign=middle;whiteSpace=wrap;rounded=0;fontSize=16;fontColor=#000000;rotation=-90;" vertex="1" parent="1">
          <mxGeometry x="360" y="243" width="408" height="40" as="geometry" />
        </mxCell>
        <mxCell id="r1ShE6sHiX4EfTQfoEpe-62" value="&lt;span style=&quot;font-size: 36px;&quot;&gt;&lt;b&gt;Door&lt;/b&gt;&lt;/span&gt;" style="text;html=1;strokeColor=none;fillColor=none;align=center;verticalAlign=middle;whiteSpace=wrap;rounded=0;fontSize=16;fontColor=#000000;rotation=-90;" vertex="1" parent="1">
          <mxGeometry x="399" y="280" width="220" height="40" as="geometry" />
        </mxCell>
      </root>
    </mxGraphModel>
  </diagram>
</mxfile>
